<svg xmlns="http://www.w3.org/2000/svg" xmlns:svg="http://www.w3.org/2000/svg" id="svg2" width="1824.123" height="576.612" version="1.1"><metadata id="metadata7"/><g id="layer1" transform="translate(-95.65625,-122.43098)"><rect id="rect4051" width="1227.537" height="494.975" x="398.192" y="123.931" rx="40" ry="40" style="fill:#a7d68f;fill-opacity:1;stroke:#000;stroke-width:3;stroke-linecap:round;stroke-miterlimit:4;stroke-opacity:1;stroke-dasharray:none;stroke-dashoffset:0"/><path id="path4077" d="M 940.89601,370.71124 C 865.94261,490.9194 865.94261,490.9194 865.94261,490.9194" style="fill:none;stroke:#000;stroke-width:3;stroke-linecap:butt;stroke-linejoin:miter;stroke-miterlimit:4;stroke-opacity:1;stroke-dasharray:none"/><g id="g3981"><path id="path3757" d="m 232.27411,207.17995 68.14436,65.01666 -89.70065,33.46081 z" style="fill:#ff9;fill-opacity:1;stroke:#000;stroke-width:3;stroke-linecap:butt;stroke-linejoin:miter;stroke-miterlimit:4;stroke-opacity:1;stroke-dasharray:none"/><path id="rect2985" d="m 102.15625,207.40675 c -2.769999,-0.002 -5,2.23 -5,5 l 0,318.25 c 0,2.77 2.23,5 5,5 l 192.84375,0 c 2.77,0 5,-2.23 5,-5 l 0,-259.65625 c 0,2.77 -2.23,5 -5,5 l -58.5625,0 c -2.77,0 -5,-2.23 -5,-5 1.63186,-8.12208 6.01316,-59.77921 1.17994,-63.49284 z" style="fill:#ff9;fill-opacity:1;stroke:#000;stroke-width:3;stroke-linecap:round;stroke-miterlimit:4;stroke-opacity:1;stroke-dasharray:none;stroke-dashoffset:0"/><path id="path3788" d="m 117.99999,237.98768 96,0" style="fill:none;stroke:#000;stroke-width:3;stroke-linecap:butt;stroke-linejoin:miter;stroke-miterlimit:4;stroke-opacity:1;stroke-dasharray:none"/><path id="path3790" d="m 117.99999,264.68769 96,0" style="fill:none;stroke:#000;stroke-width:3;stroke-linecap:butt;stroke-linejoin:miter;stroke-miterlimit:4;stroke-opacity:1;stroke-dasharray:none"/><path id="path3792" d="m 117.99999,291.3877 105.5122,0" style="fill:none;stroke:#000;stroke-width:3;stroke-linecap:butt;stroke-linejoin:miter;stroke-miterlimit:4;stroke-opacity:1;stroke-dasharray:none"/><path id="path3794" d="m 117.99999,318.08766 161,0" style="fill:none;stroke:#000;stroke-width:3;stroke-linecap:butt;stroke-linejoin:miter;stroke-miterlimit:4;stroke-opacity:1;stroke-dasharray:none"/><path id="path3796" d="m 117.99999,344.78767 161,0" style="fill:none;stroke:#000;stroke-width:3;stroke-linecap:butt;stroke-linejoin:miter;stroke-miterlimit:4;stroke-opacity:1;stroke-dasharray:none"/><path id="path3798" d="m 117.99999,371.48768 161,0" style="fill:none;stroke:#000;stroke-width:3;stroke-linecap:butt;stroke-linejoin:miter;stroke-miterlimit:4;stroke-opacity:1;stroke-dasharray:none"/><path id="path3800" d="m 117.99999,398.18769 161,0" style="fill:none;stroke:#000;stroke-width:3;stroke-linecap:butt;stroke-linejoin:miter;stroke-miterlimit:4;stroke-opacity:1;stroke-dasharray:none"/><path id="path3802" d="m 117.99999,424.8877 161,0" style="fill:none;stroke:#000;stroke-width:3;stroke-linecap:butt;stroke-linejoin:miter;stroke-miterlimit:4;stroke-opacity:1;stroke-dasharray:none"/><path id="path3804" d="m 117.99999,451.58766 161,0" style="fill:none;stroke:#000;stroke-width:3;stroke-linecap:butt;stroke-linejoin:miter;stroke-miterlimit:4;stroke-opacity:1;stroke-dasharray:none"/><path id="path3806" d="m 117.99999,478.28767 161,0" style="fill:none;stroke:#000;stroke-width:3;stroke-linecap:butt;stroke-linejoin:miter;stroke-miterlimit:4;stroke-opacity:1;stroke-dasharray:none"/><path id="path3808" d="m 117.99999,504.98768 161,0" style="fill:none;stroke:#000;stroke-width:3;stroke-linecap:butt;stroke-linejoin:miter;stroke-miterlimit:4;stroke-opacity:1;stroke-dasharray:none"/></g><g id="g3996" transform="translate(1617.8603,0)"><path id="path3998" d="m 232.27411,207.17995 68.14436,65.01666 -89.70065,33.46081 z" style="fill:#ff9;fill-opacity:1;stroke:#000;stroke-width:3;stroke-linecap:butt;stroke-linejoin:miter;stroke-miterlimit:4;stroke-opacity:1;stroke-dasharray:none"/><path id="path4000" d="m 102.15625,207.40675 c -2.769999,-0.002 -5,2.23 -5,5 l 0,318.25 c 0,2.77 2.23,5 5,5 l 192.84375,0 c 2.77,0 5,-2.23 5,-5 l 0,-259.65625 c 0,2.77 -2.23,5 -5,5 l -58.5625,0 c -2.77,0 -5,-2.23 -5,-5 1.63186,-8.12208 6.01316,-59.77921 1.17994,-63.49284 z" style="fill:#ff9;fill-opacity:1;stroke:#000;stroke-width:3;stroke-linecap:round;stroke-miterlimit:4;stroke-opacity:1;stroke-dasharray:none;stroke-dashoffset:0"/><path id="path4002" d="m 117.99999,237.98768 96,0" style="fill:none;stroke:#000;stroke-width:3;stroke-linecap:butt;stroke-linejoin:miter;stroke-miterlimit:4;stroke-opacity:1;stroke-dasharray:none"/><path id="path4004" d="m 117.99999,264.68769 96,0" style="fill:none;stroke:#000;stroke-width:3;stroke-linecap:butt;stroke-linejoin:miter;stroke-miterlimit:4;stroke-opacity:1;stroke-dasharray:none"/><path id="path4006" d="m 117.99999,291.3877 105.5122,0" style="fill:none;stroke:#000;stroke-width:3;stroke-linecap:butt;stroke-linejoin:miter;stroke-miterlimit:4;stroke-opacity:1;stroke-dasharray:none"/><path id="path4008" d="m 117.99999,318.08766 161,0" style="fill:none;stroke:#000;stroke-width:3;stroke-linecap:butt;stroke-linejoin:miter;stroke-miterlimit:4;stroke-opacity:1;stroke-dasharray:none"/><path id="path4010" d="m 117.99999,344.78767 161,0" style="fill:none;stroke:#000;stroke-width:3;stroke-linecap:butt;stroke-linejoin:miter;stroke-miterlimit:4;stroke-opacity:1;stroke-dasharray:none"/><path id="path4012" d="m 117.99999,371.48768 161,0" style="fill:none;stroke:#000;stroke-width:3;stroke-linecap:butt;stroke-linejoin:miter;stroke-miterlimit:4;stroke-opacity:1;stroke-dasharray:none"/><path id="path4014" d="m 117.99999,398.18769 161,0" style="fill:none;stroke:#000;stroke-width:3;stroke-linecap:butt;stroke-linejoin:miter;stroke-miterlimit:4;stroke-opacity:1;stroke-dasharray:none"/><path id="path4016" d="m 117.99999,424.8877 161,0" style="fill:none;stroke:#000;stroke-width:3;stroke-linecap:butt;stroke-linejoin:miter;stroke-miterlimit:4;stroke-opacity:1;stroke-dasharray:none"/><path id="path4018" d="m 117.99999,451.58766 161,0" style="fill:none;stroke:#000;stroke-width:3;stroke-linecap:butt;stroke-linejoin:miter;stroke-miterlimit:4;stroke-opacity:1;stroke-dasharray:none"/><path id="path4020" d="m 117.99999,478.28767 161,0" style="fill:none;stroke:#000;stroke-width:3;stroke-linecap:butt;stroke-linejoin:miter;stroke-miterlimit:4;stroke-opacity:1;stroke-dasharray:none"/><path id="path4022" d="m 117.99999,504.98768 161,0" style="fill:none;stroke:#000;stroke-width:3;stroke-linecap:butt;stroke-linejoin:miter;stroke-miterlimit:4;stroke-opacity:1;stroke-dasharray:none"/></g><path id="path3857" d="M 631.35997,254.74573 C 556.40665,374.95389 556.40665,374.95389 556.40665,374.95389" style="fill:none;stroke:#000;stroke-width:3;stroke-linecap:butt;stroke-linejoin:miter;stroke-miterlimit:4;stroke-opacity:1;stroke-dasharray:none"/><path id="path3859" d="m 623.93535,254.74573 c 74.95332,120.20816 74.95332,120.20816 74.95332,120.20816" style="fill:none;stroke:#000;stroke-width:3;stroke-linecap:butt;stroke-linejoin:miter;stroke-miterlimit:4;stroke-opacity:1;stroke-dasharray:none"/><path id="path3855" d="m 623.66816,226.46146 a 24.04163,24.04163 0 1 1 -48.08326,0 24.04163,24.04163 0 1 1 48.08326,0 z" transform="translate(28.021168,28.284271)" style="fill:#ff9;fill-opacity:1;stroke:#000;stroke-width:3;stroke-linecap:round;stroke-miterlimit:4;stroke-opacity:1;stroke-dasharray:none;stroke-dashoffset:0"/><path id="path3861" d="M 562.59384,370.71124 C 487.64052,490.9194 487.64052,490.9194 487.64052,490.9194" style="fill:none;stroke:#000;stroke-width:3;stroke-linecap:butt;stroke-linejoin:miter;stroke-miterlimit:4;stroke-opacity:1;stroke-dasharray:none"/><path id="path3863" d="M 557.64407,370.71124 C 632.59739,490.9194 632.59739,490.9194 632.59739,490.9194" style="fill:none;stroke:#000;stroke-width:3;stroke-linecap:butt;stroke-linejoin:miter;stroke-miterlimit:4;stroke-opacity:1;stroke-dasharray:none"/><path id="path3865" d="m 623.66816,226.46146 a 24.04163,24.04163 0 1 1 -48.08326,0 24.04163,24.04163 0 1 1 48.08326,0 z" transform="translate(-39.507566,144.24978)" style="fill:#ff9;fill-opacity:1;stroke:#000;stroke-width:3;stroke-linecap:round;stroke-miterlimit:4;stroke-opacity:1;stroke-dasharray:none;stroke-dashoffset:0"/><path id="path3871" d="m 623.66816,226.46146 a 24.04163,24.04163 0 1 1 -48.08326,0 24.04163,24.04163 0 1 1 48.08326,0 z" transform="translate(95.549844,144.24978)" style="fill:#ff9;fill-opacity:1;stroke:#000;stroke-width:3;stroke-linecap:round;stroke-miterlimit:4;stroke-opacity:1;stroke-dasharray:none;stroke-dashoffset:0"/><path id="path3877" d="m 623.66816,226.46146 a 24.04163,24.04163 0 1 1 -48.08326,0 24.04163,24.04163 0 1 1 48.08326,0 z" transform="translate(-109.51112,261.62951)" style="fill:#ff9;fill-opacity:1;stroke:#000;stroke-width:3;stroke-linecap:round;stroke-miterlimit:4;stroke-opacity:1;stroke-dasharray:none;stroke-dashoffset:0"/><path id="path3883" d="m 623.66816,226.46146 a 24.04163,24.04163 0 1 1 -48.08326,0 24.04163,24.04163 0 1 1 48.08326,0 z" transform="translate(30.496022,261.62951)" style="fill:#ff9;fill-opacity:1;stroke:#000;stroke-width:3;stroke-linecap:round;stroke-miterlimit:4;stroke-opacity:1;stroke-dasharray:none;stroke-dashoffset:0"/><path id="path3914" d="m 1001.5304,254.74573 c 74.9533,120.20816 74.9533,120.20816 74.9533,120.20816" style="fill:none;stroke:#000;stroke-width:3;stroke-linecap:butt;stroke-linejoin:miter;stroke-miterlimit:4;stroke-opacity:1;stroke-dasharray:none"/><path id="path3916" d="M 1008.955,254.74573 C 934.0017,374.95389 934.0017,374.95389 934.0017,374.95389" style="fill:none;stroke:#000;stroke-width:3;stroke-linecap:butt;stroke-linejoin:miter;stroke-miterlimit:4;stroke-opacity:1;stroke-dasharray:none"/><path id="path4079" d="m 623.66816,226.46146 a 24.04163,24.04163 0 1 1 -48.08326,0 24.04163,24.04163 0 1 1 48.08326,0 z" transform="matrix(-1,0,0,1,1468.044,261.62951)" style="fill:#ff9;fill-opacity:1;stroke:#000;stroke-width:3;stroke-linecap:round;stroke-miterlimit:4;stroke-opacity:1;stroke-dasharray:none;stroke-dashoffset:0"/><path id="path3918" d="m 623.66816,226.46146 a 24.04163,24.04163 0 1 1 -48.08326,0 24.04163,24.04163 0 1 1 48.08326,0 z" transform="matrix(-1,0,0,1,1604.8692,28.284271)" style="fill:#ff9;fill-opacity:1;stroke:#000;stroke-width:3;stroke-linecap:round;stroke-miterlimit:4;stroke-opacity:1;stroke-dasharray:none;stroke-dashoffset:0"/><path id="path3920" d="m 1070.2965,370.71124 c 74.9533,120.20816 74.9533,120.20816 74.9533,120.20816" style="fill:none;stroke:#000;stroke-width:3;stroke-linecap:butt;stroke-linejoin:miter;stroke-miterlimit:4;stroke-opacity:1;stroke-dasharray:none"/><path id="path3922" d="M 1075.2463,370.71124 C 1000.2929,490.9194 1000.2929,490.9194 1000.2929,490.9194" style="fill:none;stroke:#000;stroke-width:3;stroke-linecap:butt;stroke-linejoin:miter;stroke-miterlimit:4;stroke-opacity:1;stroke-dasharray:none"/><path id="path3924" d="m 623.66816,226.46146 a 24.04163,24.04163 0 1 1 -48.08326,0 24.04163,24.04163 0 1 1 48.08326,0 z" transform="matrix(-1,0,0,1,1672.3979,144.24978)" style="fill:#ff9;fill-opacity:1;stroke:#000;stroke-width:3;stroke-linecap:round;stroke-miterlimit:4;stroke-opacity:1;stroke-dasharray:none;stroke-dashoffset:0"/><path id="path3926" d="m 623.66816,226.46146 a 24.04163,24.04163 0 1 1 -48.08326,0 24.04163,24.04163 0 1 1 48.08326,0 z" transform="matrix(-1,0,0,1,1537.3405,144.24978)" style="fill:#ff9;fill-opacity:1;stroke:#000;stroke-width:3;stroke-linecap:round;stroke-miterlimit:4;stroke-opacity:1;stroke-dasharray:none;stroke-dashoffset:0"/><path id="path3928" d="m 623.66816,226.46146 a 24.04163,24.04163 0 1 1 -48.08326,0 24.04163,24.04163 0 1 1 48.08326,0 z" transform="matrix(-1,0,0,1,1742.4015,261.62951)" style="fill:#ff9;fill-opacity:1;stroke:#000;stroke-width:3;stroke-linecap:round;stroke-miterlimit:4;stroke-opacity:1;stroke-dasharray:none;stroke-dashoffset:0"/><path id="path3930" d="m 623.66816,226.46146 a 24.04163,24.04163 0 1 1 -48.08326,0 24.04163,24.04163 0 1 1 48.08326,0 z" transform="matrix(-1,0,0,1,1602.3943,261.62951)" style="fill:#ff9;fill-opacity:1;stroke:#000;stroke-width:3;stroke-linecap:round;stroke-miterlimit:4;stroke-opacity:1;stroke-dasharray:none;stroke-dashoffset:0"/><path id="path3934" d="m 1419.0769,254.74573 c -74.9533,120.20816 -74.9533,120.20816 -74.9533,120.20816" style="fill:none;stroke:#000;stroke-width:3;stroke-linecap:butt;stroke-linejoin:miter;stroke-miterlimit:4;stroke-opacity:1;stroke-dasharray:none"/><path id="path4064" d="M 1482.5397,370.71124 C 1557.493,490.9194 1557.493,490.9194 1557.493,490.9194" style="fill:none;stroke:#000;stroke-width:3;stroke-linecap:butt;stroke-linejoin:miter;stroke-miterlimit:4;stroke-opacity:1;stroke-dasharray:none"/><path id="path3936" d="m 1411.6523,254.74573 c 74.9533,120.20816 74.9533,120.20816 74.9533,120.20816" style="fill:none;stroke:#000;stroke-width:3;stroke-linecap:butt;stroke-linejoin:miter;stroke-miterlimit:4;stroke-opacity:1;stroke-dasharray:none"/><path id="path3938" d="m 623.66816,226.46146 a 24.04163,24.04163 0 1 1 -48.08326,0 24.04163,24.04163 0 1 1 48.08326,0 z" transform="translate(815.73807,28.284271)" style="fill:#ff9;fill-opacity:1;stroke:#000;stroke-width:3;stroke-linecap:round;stroke-miterlimit:4;stroke-opacity:1;stroke-dasharray:none;stroke-dashoffset:0"/><path id="path3940" d="M 1350.3107,370.71124 C 1275.3574,490.9194 1275.3574,490.9194 1275.3574,490.9194" style="fill:none;stroke:#000;stroke-width:3;stroke-linecap:butt;stroke-linejoin:miter;stroke-miterlimit:4;stroke-opacity:1;stroke-dasharray:none"/><path id="path3942" d="m 1345.361,370.71124 c 74.9533,120.20816 74.9533,120.20816 74.9533,120.20816" style="fill:none;stroke:#000;stroke-width:3;stroke-linecap:butt;stroke-linejoin:miter;stroke-miterlimit:4;stroke-opacity:1;stroke-dasharray:none"/><path id="path3944" d="m 623.66816,226.46146 a 24.04163,24.04163 0 1 1 -48.08326,0 24.04163,24.04163 0 1 1 48.08326,0 z" transform="translate(748.20933,144.24978)" style="fill:#ff9;fill-opacity:1;stroke:#000;stroke-width:3;stroke-linecap:round;stroke-miterlimit:4;stroke-opacity:1;stroke-dasharray:none;stroke-dashoffset:0"/><path id="path4066" d="m 623.66816,226.46146 a 24.04163,24.04163 0 1 1 -48.08326,0 24.04163,24.04163 0 1 1 48.08326,0 z" transform="translate(955.39164,261.62951)" style="fill:#ff9;fill-opacity:1;stroke:#000;stroke-width:3;stroke-linecap:round;stroke-miterlimit:4;stroke-opacity:1;stroke-dasharray:none;stroke-dashoffset:0"/><path id="path3946" d="m 623.66816,226.46146 a 24.04163,24.04163 0 1 1 -48.08326,0 24.04163,24.04163 0 1 1 48.08326,0 z" transform="translate(883.26675,144.24978)" style="fill:#ff9;fill-opacity:1;stroke:#000;stroke-width:3;stroke-linecap:round;stroke-miterlimit:4;stroke-opacity:1;stroke-dasharray:none;stroke-dashoffset:0"/><path id="path3948" d="m 623.66816,226.46146 a 24.04163,24.04163 0 1 1 -48.08326,0 24.04163,24.04163 0 1 1 48.08326,0 z" transform="translate(678.20578,261.62951)" style="fill:#ff9;fill-opacity:1;stroke:#000;stroke-width:3;stroke-linecap:round;stroke-miterlimit:4;stroke-opacity:1;stroke-dasharray:none;stroke-dashoffset:0"/><path id="path3950" d="m 623.66816,226.46146 a 24.04163,24.04163 0 1 1 -48.08326,0 24.04163,24.04163 0 1 1 48.08326,0 z" transform="translate(818.21292,261.62951)" style="fill:#ff9;fill-opacity:1;stroke:#000;stroke-width:3;stroke-linecap:round;stroke-miterlimit:4;stroke-opacity:1;stroke-dasharray:none;stroke-dashoffset:0"/><text id="text3952" x="335.434" y="425.713" xml:space="preserve" style="font-size:183.87713623px;font-style:normal;font-variant:normal;font-weight:400;font-stretch:normal;text-align:start;line-height:125%;letter-spacing:0;word-spacing:0;text-anchor:start;fill:#060;fill-opacity:1;stroke:none;font-family:Nimbus Sans L;-inkscape-font-specification:Nimbus Sans L"><tspan id="tspan3954" x="335.434" y="425.713">⇝</tspan></text><text id="text3956" x="737.071" y="425.713" xml:space="preserve" style="font-size:183.87713623px;font-style:normal;font-variant:normal;font-weight:400;font-stretch:normal;text-align:start;line-height:125%;letter-spacing:0;word-spacing:0;text-anchor:start;fill:#060;fill-opacity:1;stroke:none;font-family:Nimbus Sans L;-inkscape-font-specification:Nimbus Sans L"><tspan id="tspan3958" x="737.071" y="425.713">⇝</tspan></text><text id="text3960" x="1131.637" y="425.713" xml:space="preserve" style="font-size:183.87713623px;font-style:normal;font-variant:normal;font-weight:400;font-stretch:normal;text-align:start;line-height:125%;letter-spacing:0;word-spacing:0;text-anchor:start;fill:#060;fill-opacity:1;stroke:none;font-family:Nimbus Sans L;-inkscape-font-specification:Nimbus Sans L"><tspan id="tspan3962" x="1131.637" y="425.713">⇝</tspan></text><text id="text3964" x="1555.901" y="425.713" xml:space="preserve" style="font-size:183.87713623px;font-style:normal;font-variant:normal;font-weight:400;font-stretch:normal;text-align:start;line-height:125%;letter-spacing:0;word-spacing:0;text-anchor:start;fill:#060;fill-opacity:1;stroke:none;font-family:Nimbus Sans L;-inkscape-font-specification:Nimbus Sans L"><tspan id="tspan3966" x="1555.901" y="425.713">⇝</tspan></text><text id="text4081" x="117.805" y="684.802" xml:space="preserve" style="font-size:65.32565308px;font-style:normal;font-variant:normal;font-weight:700;font-stretch:normal;text-align:start;line-height:125%;letter-spacing:0;word-spacing:0;text-anchor:start;fill:#000;fill-opacity:1;stroke:none;font-family:Nimbus Sans L;-inkscape-font-specification:Sans Bold"><tspan id="tspan4083" x="117.805" y="684.802">input</tspan></text><text id="text4097" x="875.322" y="684.802" xml:space="preserve" style="font-size:65.32565308px;font-style:normal;font-variant:normal;font-weight:700;font-stretch:normal;text-align:start;line-height:125%;letter-spacing:0;word-spacing:0;text-anchor:start;fill:#000;fill-opacity:1;stroke:none;font-family:Nimbus Sans L;-inkscape-font-specification:Sans Bold"><tspan id="tspan4099" x="875.322" y="684.802">compiler</tspan></text><text id="text4101" x="1714.893" y="684.802" xml:space="preserve" style="font-size:65.32565308px;font-style:normal;font-variant:normal;font-weight:700;font-stretch:normal;text-align:start;line-height:125%;letter-spacing:0;word-spacing:0;text-anchor:start;fill:#000;fill-opacity:1;stroke:none;font-family:Nimbus Sans L;-inkscape-font-specification:Sans Bold"><tspan id="tspan4103" x="1714.893" y="684.802">output</tspan></text></g></svg>