<svg xmlns="http://www.w3.org/2000/svg" xmlns:svg="http://www.w3.org/2000/svg" id="svg2" width="1261.983" height="664.438" version="1.1"><defs id="defs4"><marker id="marker5204" orient="auto" refX="0" refY="0" style="overflow:visible"><path id="path4783" d="M 8.7185878,4.0337352 -2.2072895,0.01601326 8.7185884,-4.0017078 c -1.7454984,2.3720609 -1.7354408,5.6174519 -6e-7,8.035443 z" transform="scale(-0.6,-0.6)" style="fill-rule:evenodd;stroke-width:.625;stroke-linejoin:round"/></marker><marker id="Arrow2Send" orient="auto" refX="0" refY="0" style="overflow:visible"><path id="path4789" d="M 8.7185878,4.0337352 -2.2072895,0.01601326 8.7185884,-4.0017078 c -1.7454984,2.3720609 -1.7354408,5.6174519 -6e-7,8.035443 z" transform="matrix(-0.3,0,0,-0.3,0.69,0)" style="fill-rule:evenodd;stroke-width:.625;stroke-linejoin:round"/></marker><marker id="Arrow2Mend" orient="auto" refX="0" refY="0" style="overflow:visible"><path id="path3878" d="M 8.7185878,4.0337352 -2.2072895,0.01601326 8.7185884,-4.0017078 c -1.7454984,2.3720609 -1.7354408,5.6174519 -6e-7,8.035443 z" transform="scale(-0.6,-0.6)" style="fill-rule:evenodd;stroke-width:.625;stroke-linejoin:round"/></marker><marker id="marker4546" orient="auto" refX="0" refY="0" style="overflow:visible"><path id="path4548" d="M 8.7185878,4.0337352 -2.2072895,0.01601326 8.7185884,-4.0017078 c -1.7454984,2.3720609 -1.7354408,5.6174519 -6e-7,8.035443 z" transform="scale(-0.6,-0.6)" style="fill-rule:evenodd;stroke-width:.625;stroke-linejoin:round"/></marker><marker id="marker4550" orient="auto" refX="0" refY="0" style="overflow:visible"><path id="path4552" d="M 8.7185878,4.0337352 -2.2072895,0.01601326 8.7185884,-4.0017078 c -1.7454984,2.3720609 -1.7354408,5.6174519 -6e-7,8.035443 z" transform="scale(-0.6,-0.6)" style="fill-rule:evenodd;stroke-width:.625;stroke-linejoin:round"/></marker><marker id="marker4554" orient="auto" refX="0" refY="0" style="overflow:visible"><path id="path4556" d="M 8.7185878,4.0337352 -2.2072895,0.01601326 8.7185884,-4.0017078 c -1.7454984,2.3720609 -1.7354408,5.6174519 -6e-7,8.035443 z" transform="scale(-0.6,-0.6)" style="fill-rule:evenodd;stroke-width:.625;stroke-linejoin:round"/></marker></defs><metadata id="metadata7"/><g id="g4524" transform="translate(333.47305,-202.5376)"><path id="path2987" d="m 332.3598,300.15054 a 47.873016,47.873016 0 1 1 -95.74603,0 47.873016,47.873016 0 1 1 95.74603,0 z" transform="translate(-23.111115,0)" style="fill:#a7d68f;fill-opacity:1;stroke:#000;stroke-width:3;stroke-miterlimit:4;stroke-opacity:1;stroke-dasharray:none"/><text id="text3757" x="249.82" y="320.51" xml:space="preserve" style="font-size:28px;font-style:normal;font-variant:normal;font-weight:400;font-stretch:normal;text-align:start;line-height:125%;letter-spacing:0;word-spacing:0;text-anchor:start;fill:#000;fill-opacity:1;stroke:none;font-family:Nimbus Mono L;-inkscape-font-specification:Nimbus Mono L"><tspan id="tspan3759" x="249.82" y="320.51" style="font-size:40px;font-style:normal;font-variant:normal;font-weight:700;font-stretch:normal;font-family:Monospace;-inkscape-font-specification:Monospace Bold">*</tspan></text></g><g id="g4529" transform="translate(246.53125,-202.5376)"><path id="path3761" d="m 332.3598,300.15054 a 47.873016,47.873016 0 1 1 -95.74603,0 47.873016,47.873016 0 1 1 95.74603,0 z" transform="translate(-208,243.21693)" style="fill:#a7d68f;fill-opacity:1;stroke:#000;stroke-width:3;stroke-miterlimit:4;stroke-opacity:1;stroke-dasharray:none"/><text id="text3763" x="64.931" y="557.124" xml:space="preserve" style="font-size:28px;font-style:normal;font-variant:normal;font-weight:400;font-stretch:normal;text-align:start;line-height:125%;letter-spacing:0;word-spacing:0;text-anchor:start;fill:#000;fill-opacity:1;stroke:none;font-family:Nimbus Mono L;-inkscape-font-specification:Nimbus Mono L"><tspan id="tspan3765" x="64.931" y="557.124" style="font-size:40px;font-style:normal;font-variant:normal;font-weight:700;font-stretch:normal;font-family:Monospace;-inkscape-font-specification:Monospace Bold">+</tspan></text></g><g id="g4519" transform="translate(246.53125,-202.5376)"><path id="path3767" d="m 332.3598,300.15054 a 47.873016,47.873016 0 1 1 -95.74603,0 47.873016,47.873016 0 1 1 95.74603,0 z" transform="translate(335.66138,243.21693)" style="fill:#a7d68f;fill-opacity:1;stroke:#000;stroke-width:3;stroke-miterlimit:4;stroke-opacity:1;stroke-dasharray:none"/><text id="text3769" x="608.593" y="558.225" xml:space="preserve" style="font-size:28px;font-style:normal;font-variant:normal;font-weight:400;font-stretch:normal;text-align:start;line-height:125%;letter-spacing:0;word-spacing:0;text-anchor:start;fill:#000;fill-opacity:1;stroke:none;font-family:Nimbus Mono L;-inkscape-font-specification:Nimbus Mono L"><tspan id="tspan3771" x="608.593" y="558.225" style="font-size:40px;font-style:normal;font-variant:normal;font-weight:700;font-stretch:normal;font-family:Monospace;-inkscape-font-specification:Monospace Bold">-</tspan></text></g><path id="path3798" d="m 260.28788,581.84574 a 47.873016,47.873016 0 1 1 -95.74603,0 47.873016,47.873016 0 1 1 95.74603,0 z" style="fill:#ff794b;fill-opacity:1;stroke:#000;stroke-width:3;stroke-miterlimit:4;stroke-opacity:1;stroke-dasharray:none"/><text id="text3800" x="200.859" y="595.602" xml:space="preserve" style="font-size:28px;font-style:normal;font-variant:normal;font-weight:400;font-stretch:normal;text-align:start;line-height:125%;letter-spacing:0;word-spacing:0;text-anchor:start;fill:#000;fill-opacity:1;stroke:none;font-family:Nimbus Mono L;-inkscape-font-specification:Nimbus Mono L"><tspan id="tspan3802" x="200.859" y="595.602" style="font-size:40px;font-style:normal;font-variant:normal;font-weight:700;font-stretch:normal;font-family:Monospace;-inkscape-font-specification:Monospace Bold">i</tspan></text><path id="path3806" d="m 481.49423,581.84574 a 47.873016,47.873016 0 1 1 -95.74603,0 47.873016,47.873016 0 1 1 95.74603,0 z" style="fill:#ffdb9d;fill-opacity:1;stroke:#000;stroke-width:3;stroke-miterlimit:4;stroke-opacity:1;stroke-dasharray:none"/><text id="text3808" x="422.066" y="596.703" xml:space="preserve" style="font-size:28px;font-style:normal;font-variant:normal;font-weight:400;font-stretch:normal;text-align:start;line-height:125%;letter-spacing:0;word-spacing:0;text-anchor:start;fill:#000;fill-opacity:1;stroke:none;font-family:Nimbus Mono L;-inkscape-font-specification:Nimbus Mono L"><tspan id="tspan3810" x="422.066" y="596.703" style="font-size:40px;font-style:normal;font-variant:normal;font-weight:700;font-stretch:normal;font-family:Monospace;-inkscape-font-specification:Monospace Bold">2</tspan></text><path id="path3850" d="m 803.94925,581.84574 a 47.873016,47.873016 0 1 1 -95.74603,0 47.873016,47.873016 0 1 1 95.74603,0 z" style="fill:#ff794b;fill-opacity:1;stroke:#000;stroke-width:3;stroke-miterlimit:4;stroke-opacity:1;stroke-dasharray:none"/><text id="text3852" x="744.521" y="595.602" xml:space="preserve" style="font-size:28px;font-style:normal;font-variant:normal;font-weight:400;font-stretch:normal;text-align:start;line-height:125%;letter-spacing:0;word-spacing:0;text-anchor:start;fill:#000;fill-opacity:1;stroke:none;font-family:Nimbus Mono L;-inkscape-font-specification:Nimbus Mono L"><tspan id="tspan3854" x="744.521" y="595.602" style="font-size:40px;font-style:normal;font-variant:normal;font-weight:700;font-stretch:normal;font-family:Monospace;-inkscape-font-specification:Monospace Bold">j</tspan></text><path id="path3858" d="m 1025.1556,581.84574 a 47.873016,47.873016 0 1 1 -95.74603,0 47.873016,47.873016 0 1 1 95.74603,0 z" style="fill:#ffdb9d;fill-opacity:1;stroke:#000;stroke-width:3;stroke-miterlimit:4;stroke-opacity:1;stroke-dasharray:none"/><text id="text3860" x="965.727" y="596.703" xml:space="preserve" style="font-size:28px;font-style:normal;font-variant:normal;font-weight:400;font-stretch:normal;text-align:start;line-height:125%;letter-spacing:0;word-spacing:0;text-anchor:start;fill:#000;fill-opacity:1;stroke:none;font-family:Nimbus Mono L;-inkscape-font-specification:Nimbus Mono L"><tspan id="tspan3862" x="965.727" y="596.703" style="font-size:40px;font-style:normal;font-variant:normal;font-weight:700;font-stretch:normal;font-family:Monospace;-inkscape-font-specification:Monospace Bold">3</tspan></text><rect id="rect2989" width="39.586" height="22.878" x="824.323" y="41.49" rx="2.336" ry="9.343" style="fill:#a7d68f;fill-opacity:1;stroke:#000;stroke-width:.70071125;stroke-linecap:round;stroke-miterlimit:4;stroke-opacity:1;stroke-dasharray:none;stroke-dashoffset:0"/><rect id="rect3013" width="39.586" height="22.878" x="743.87" y="82.747" rx="2.336" ry="9.343" style="fill:#a7d68f;fill-opacity:1;stroke:#000;stroke-width:.70071125;stroke-linecap:round;stroke-miterlimit:4;stroke-opacity:1;stroke-dasharray:none;stroke-dashoffset:0"/><rect id="rect3021" width="46.269" height="22.878" x="695.416" y="124.004" rx="2.336" ry="9.343" style="fill:#ff794b;fill-opacity:1;stroke:#000;stroke-width:.70071125;stroke-linecap:round;stroke-miterlimit:4;stroke-opacity:1;stroke-dasharray:none;stroke-dashoffset:0"/><rect id="rect3029" width="46.269" height="22.878" x="783.584" y="124.004" rx="2.336" ry="9.343" style="fill:#ffdb9d;fill-opacity:1;stroke:#000;stroke-width:.70071125;stroke-linecap:round;stroke-miterlimit:4;stroke-opacity:1;stroke-dasharray:none;stroke-dashoffset:0"/><path id="path3845" d="M 717.39371,123.23269 751.0674,106.01027" style="fill:none;stroke:#000;stroke-width:.70071125;stroke-linecap:butt;stroke-linejoin:miter;stroke-miterlimit:4;stroke-opacity:1;stroke-dasharray:none;marker-end:url(#Arrow2Mend)"/><path id="path4477" d="M 807.83437,123.23269 774.16068,106.01027" style="fill:none;stroke:#000;stroke-width:.70071125;stroke-linecap:butt;stroke-linejoin:miter;stroke-miterlimit:4;stroke-opacity:1;stroke-dasharray:none;marker-end:url(#Arrow2Mend)"/><path id="path4479" d="M 929.59162,82.104524 852.17705,64.882102" style="fill:none;stroke:#000;stroke-width:.70071125;stroke-linecap:butt;stroke-linejoin:miter;stroke-miterlimit:4;stroke-opacity:1;stroke-dasharray:none;marker-end:url(#Arrow2Mend)"/><path id="path4481" d="M 764.42792,82.104524 834.63247,64.882102" style="fill:none;stroke:#000;stroke-width:.70071125;stroke-linecap:butt;stroke-linejoin:miter;stroke-miterlimit:4;stroke-opacity:1;stroke-dasharray:none;marker-end:url(#Arrow2Mend)"/><rect id="rect4710" width="46.269" height="22.878" x="862.208" y="124.004" rx="2.336" ry="9.343" style="fill:#ff794b;fill-opacity:1;stroke:#000;stroke-width:.70071125;stroke-linecap:round;stroke-miterlimit:4;stroke-opacity:1;stroke-dasharray:none;stroke-dashoffset:0"/><rect id="rect4724" width="46.269" height="22.878" x="950.377" y="124.004" rx="2.336" ry="9.343" style="fill:#ffdb9d;fill-opacity:1;stroke:#000;stroke-width:.70071125;stroke-linecap:round;stroke-miterlimit:4;stroke-opacity:1;stroke-dasharray:none;stroke-dashoffset:0"/><path id="path4730" d="m 884.18592,123.23269 33.67371,-17.22242" style="fill:none;stroke:#000;stroke-width:.70071125;stroke-linecap:butt;stroke-linejoin:miter;stroke-miterlimit:4;stroke-opacity:1;stroke-dasharray:none;marker-end:url(#Arrow2Mend)"/><path id="path4732" d="M 974.62658,123.23269 940.95289,106.01027" style="fill:none;stroke:#000;stroke-width:.70071125;stroke-linecap:butt;stroke-linejoin:miter;stroke-miterlimit:4;stroke-opacity:1;stroke-dasharray:none;marker-end:url(#Arrow2Mend)"/><rect id="rect4744" width="39.586" height="22.878" x="909.701" y="82.747" rx="2.336" ry="9.343" style="fill:#a7d68f;fill-opacity:1;stroke:#000;stroke-width:.70071125;stroke-linecap:round;stroke-miterlimit:4;stroke-opacity:1;stroke-dasharray:none;stroke-dashoffset:0"/><path id="path4750" d="M 357.68469,306.16321 560.18204,135.5812" style="fill:none;stroke:#000;stroke-width:5;stroke-linecap:butt;stroke-linejoin:miter;stroke-miterlimit:4;stroke-opacity:1;stroke-dasharray:none;marker-end:none"/><path id="path5399" d="M 834.54621,306.16321 632.04886,135.5812" style="fill:none;stroke:#000;stroke-width:5;stroke-linecap:butt;stroke-linejoin:miter;stroke-miterlimit:4;stroke-opacity:1;stroke-dasharray:none;marker-end:none"/><path id="path5401" d="M 238.82755,540.57591 302.65823,388.70289" style="fill:none;stroke:#000;stroke-width:5;stroke-linecap:butt;stroke-linejoin:miter;stroke-miterlimit:4;stroke-opacity:1;stroke-dasharray:none;marker-end:none"/><path id="path5403" d="M 779.18734,540.57591 843.01802,388.70289" style="fill:none;stroke:#000;stroke-width:5;stroke-linecap:butt;stroke-linejoin:miter;stroke-miterlimit:4;stroke-opacity:1;stroke-dasharray:none;marker-end:none"/><path id="path5405" d="M 955.29341,540.57591 891.46273,388.70289" style="fill:none;stroke:#000;stroke-width:5;stroke-linecap:butt;stroke-linejoin:miter;stroke-miterlimit:4;stroke-opacity:1;stroke-dasharray:none;marker-end:none"/><path id="path5407" d="M 410.53151,540.57591 346.70083,388.70289" style="fill:none;stroke:#000;stroke-width:5;stroke-linecap:butt;stroke-linejoin:miter;stroke-miterlimit:4;stroke-opacity:1;stroke-dasharray:none;marker-end:none"/><rect id="rect5456" width="39.586" height="22.878" x="451.158" y="303.662" rx="2.336" ry="9.343" style="fill:#a7d68f;fill-opacity:1;stroke:#000;stroke-width:.70071125;stroke-linecap:round;stroke-miterlimit:4;stroke-opacity:1;stroke-dasharray:none;stroke-dashoffset:0"/><rect id="rect5462" width="46.269" height="22.878" x="402.703" y="344.919" rx="2.336" ry="9.343" style="fill:#ff794b;fill-opacity:1;stroke:#000;stroke-width:.70071125;stroke-linecap:round;stroke-miterlimit:4;stroke-opacity:1;stroke-dasharray:none;stroke-dashoffset:0"/><rect id="rect5468" width="46.269" height="22.878" x="490.872" y="344.919" rx="2.336" ry="9.343" style="fill:#ffdb9d;fill-opacity:1;stroke:#000;stroke-width:.70071125;stroke-linecap:round;stroke-miterlimit:4;stroke-opacity:1;stroke-dasharray:none;stroke-dashoffset:0"/><path id="path5474" d="m 424.6813,344.14771 33.67369,-17.22242" style="fill:none;stroke:#000;stroke-width:.70071125;stroke-linecap:butt;stroke-linejoin:miter;stroke-miterlimit:4;stroke-opacity:1;stroke-dasharray:none;marker-end:url(#Arrow2Mend)"/><path id="path5476" d="M 515.12196,344.14771 481.44827,326.92529" style="fill:none;stroke:#000;stroke-width:.70071125;stroke-linecap:butt;stroke-linejoin:miter;stroke-miterlimit:4;stroke-opacity:1;stroke-dasharray:none;marker-end:url(#Arrow2Mend)"/><rect id="rect5553" width="39.586" height="22.878" x="997.922" y="303.662" rx="2.336" ry="9.343" style="fill:#a7d68f;fill-opacity:1;stroke:#000;stroke-width:.70071125;stroke-linecap:round;stroke-miterlimit:4;stroke-opacity:1;stroke-dasharray:none;stroke-dashoffset:0"/><rect id="rect5559" width="46.269" height="22.878" x="949.468" y="344.919" rx="2.336" ry="9.343" style="fill:#ff794b;fill-opacity:1;stroke:#000;stroke-width:.70071125;stroke-linecap:round;stroke-miterlimit:4;stroke-opacity:1;stroke-dasharray:none;stroke-dashoffset:0"/><rect id="rect5565" width="46.269" height="22.878" x="1037.637" y="344.919" rx="2.336" ry="9.343" style="fill:#ffdb9d;fill-opacity:1;stroke:#000;stroke-width:.70071125;stroke-linecap:round;stroke-miterlimit:4;stroke-opacity:1;stroke-dasharray:none;stroke-dashoffset:0"/><path id="path5571" d="m 971.44599,344.14771 33.67371,-17.22242" style="fill:none;stroke:#000;stroke-width:.70071125;stroke-linecap:butt;stroke-linejoin:miter;stroke-miterlimit:4;stroke-opacity:1;stroke-dasharray:none;marker-end:url(#Arrow2Mend)"/><path id="path5573" d="M 1061.8867,344.14771 1028.213,326.92529" style="fill:none;stroke:#000;stroke-width:.70071125;stroke-linecap:butt;stroke-linejoin:miter;stroke-miterlimit:4;stroke-opacity:1;stroke-dasharray:none;marker-end:url(#Arrow2Mend)"/><rect id="rect5585" width="46.269" height="22.878" x="283.962" y="569.976" rx="2.336" ry="9.343" style="fill:#ff794b;fill-opacity:1;stroke:#000;stroke-width:.70071125;stroke-linecap:round;stroke-miterlimit:4;stroke-opacity:1;stroke-dasharray:none;stroke-dashoffset:0"/><rect id="rect5617" width="46.269" height="22.878" x="510.202" y="569.976" rx="2.336" ry="9.343" style="fill:#ffdb9d;fill-opacity:1;stroke:#000;stroke-width:.70071125;stroke-linecap:round;stroke-miterlimit:4;stroke-opacity:1;stroke-dasharray:none;stroke-dashoffset:0"/><rect id="rect5663" width="46.269" height="22.878" x="826.584" y="569.976" rx="2.336" ry="9.343" style="fill:#ff794b;fill-opacity:1;stroke:#000;stroke-width:.70071125;stroke-linecap:round;stroke-miterlimit:4;stroke-opacity:1;stroke-dasharray:none;stroke-dashoffset:0"/><rect id="rect5671" width="46.269" height="22.878" x="1052.825" y="569.976" rx="2.336" ry="9.343" style="fill:#ffdb9d;fill-opacity:1;stroke:#000;stroke-width:.70071125;stroke-linecap:round;stroke-miterlimit:4;stroke-opacity:1;stroke-dasharray:none;stroke-dashoffset:0"/><g id="g5701" transform="translate(246.53125,-168.1875)"><path id="rect5677" d="m -214,168.6875 0,604.8125 -32.03125,0 57.84375,58.625 58.65625,-58.65625 -32,0 0,-604.78125 -52.46875,0 z" style="fill:#ddd;fill-opacity:1;stroke:#000;stroke-width:1;stroke-linecap:round;stroke-miterlimit:4;stroke-opacity:1;stroke-dasharray:none;stroke-dashoffset:0"/><text id="text5687" x="234.35" y="196.536" transform="matrix(0,1,-1,0,0,0)" xml:space="preserve" style="font-size:36px;font-style:normal;font-variant:normal;font-weight:700;font-stretch:normal;text-align:start;line-height:125%;letter-spacing:0;word-spacing:0;text-anchor:start;fill:#000;fill-opacity:1;stroke:none;font-family:Nimbus Sans L;-inkscape-font-specification:Sans Bold"><tspan id="tspan5689" x="234.35" y="196.536"><tspan id="tspan5697" style="font-weight:400;-inkscape-font-specification:Nimbus Sans L">parsing proceeds </tspan>top-down</tspan></text></g><g id="g5707" transform="translate(246.53125,-168.1875)"><path id="path5691" d="m 982.92045,832.125 0,-604.8125 32.03125,0 -57.84375,-58.625 -58.65629,58.65625 32.00004,0 0,604.78125 52.46875,0 z" style="fill:#ddd;fill-opacity:1;stroke:#000;stroke-width:1;stroke-linecap:round;stroke-miterlimit:4;stroke-opacity:1;stroke-dasharray:none;stroke-dashoffset:0"/><text id="text5693" x="-732.113" y="965.457" transform="matrix(0,-1,1,0,0,0)" xml:space="preserve" style="font-size:36px;font-style:normal;font-variant:normal;font-weight:700;font-stretch:normal;text-align:start;line-height:125%;letter-spacing:0;word-spacing:0;text-anchor:start;fill:#000;fill-opacity:1;stroke:none;font-family:Nimbus Sans L;-inkscape-font-specification:Sans Bold"><tspan id="tspan5695" x="-732.113" y="965.457"><tspan id="tspan5699" style="font-weight:400;-inkscape-font-specification:Nimbus Sans L">ASTs are built </tspan>bottom-up</tspan></text></g></svg>